<mxfile host="Electron" modified="2024-05-21T14:26:21.150Z" agent="Mozilla/5.0 (Macintosh; Intel Mac OS X 10_15_7) AppleWebKit/537.36 (KHTML, like Gecko) draw.io/24.4.0 Chrome/120.0.6099.109 Electron/28.1.0 Safari/537.36" etag="lYbV1P-qREnMiA-Gz6nM" version="24.4.0" type="device" pages="3">
  <diagram name="Page-1" id="75xAxfZUtezv4ikoL0W9">
    <mxGraphModel dx="1103" dy="620" grid="1" gridSize="10" guides="1" tooltips="1" connect="1" arrows="1" fold="1" page="1" pageScale="1" pageWidth="827" pageHeight="1169" math="0" shadow="0">
      <root>
        <mxCell id="0" />
        <mxCell id="1" parent="0" />
        <mxCell id="_I0Dw_Q9TnmeKwUnhO5s-3" value="" style="group" parent="1" vertex="1" connectable="0">
          <mxGeometry x="99" y="110" width="151" height="40" as="geometry" />
        </mxCell>
        <mxCell id="_I0Dw_Q9TnmeKwUnhO5s-2" value="" style="rounded=0;whiteSpace=wrap;html=1;" parent="_I0Dw_Q9TnmeKwUnhO5s-3" vertex="1">
          <mxGeometry x="40" width="70" height="26.666666666666664" as="geometry" />
        </mxCell>
        <mxCell id="_I0Dw_Q9TnmeKwUnhO5s-4" value="" style="rounded=0;whiteSpace=wrap;html=1;pointerEvents=0;align=center;verticalAlign=top;fontFamily=Helvetica;fontSize=12;fontColor=default;fillColor=none;gradientColor=none;" parent="_I0Dw_Q9TnmeKwUnhO5s-3" vertex="1">
          <mxGeometry width="40" height="26.666666666666664" as="geometry" />
        </mxCell>
        <mxCell id="_I0Dw_Q9TnmeKwUnhO5s-5" value="" style="rounded=0;whiteSpace=wrap;html=1;pointerEvents=0;align=center;verticalAlign=top;fontFamily=Helvetica;fontSize=12;fontColor=default;fillColor=none;gradientColor=none;" parent="_I0Dw_Q9TnmeKwUnhO5s-3" vertex="1">
          <mxGeometry x="110" width="40" height="26.666666666666664" as="geometry" />
        </mxCell>
        <mxCell id="_I0Dw_Q9TnmeKwUnhO5s-41" value="&lt;b&gt;200&lt;/b&gt;" style="text;html=1;align=center;verticalAlign=middle;resizable=0;points=[];autosize=1;strokeColor=none;fillColor=none;fontFamily=Helvetica;fontSize=12;fontColor=default;" parent="_I0Dw_Q9TnmeKwUnhO5s-3" vertex="1">
          <mxGeometry x="111" width="40" height="30" as="geometry" />
        </mxCell>
        <mxCell id="_I0Dw_Q9TnmeKwUnhO5s-12" value="struct node{&lt;div style=&quot;&quot;&gt;int data;&lt;/div&gt;&lt;div style=&quot;&quot;&gt;struct node *left;&lt;/div&gt;&lt;div style=&quot;&quot;&gt;struct node *right;&lt;/div&gt;&lt;div&gt;};&lt;/div&gt;" style="text;html=1;align=left;verticalAlign=middle;resizable=0;points=[];autosize=1;strokeColor=none;fillColor=none;fontFamily=Helvetica;fontSize=12;fontColor=default;" parent="1" vertex="1">
          <mxGeometry x="690" y="10" width="120" height="90" as="geometry" />
        </mxCell>
        <mxCell id="_I0Dw_Q9TnmeKwUnhO5s-15" style="edgeStyle=orthogonalEdgeStyle;rounded=0;orthogonalLoop=1;jettySize=auto;html=1;entryX=0;entryY=0.75;entryDx=0;entryDy=0;fontFamily=Helvetica;fontSize=12;fontColor=default;" parent="1" source="_I0Dw_Q9TnmeKwUnhO5s-14" target="_I0Dw_Q9TnmeKwUnhO5s-4" edge="1">
          <mxGeometry relative="1" as="geometry">
            <Array as="points">
              <mxPoint x="54" y="130" />
            </Array>
          </mxGeometry>
        </mxCell>
        <mxCell id="_I0Dw_Q9TnmeKwUnhO5s-14" value="" style="rounded=1;whiteSpace=wrap;html=1;pointerEvents=0;align=center;verticalAlign=top;fontFamily=Helvetica;fontSize=12;fontColor=default;fillColor=none;gradientColor=none;" parent="1" vertex="1">
          <mxGeometry x="30" y="60" width="50" height="20" as="geometry" />
        </mxCell>
        <mxCell id="_I0Dw_Q9TnmeKwUnhO5s-16" value="&lt;b&gt;NULL&lt;/b&gt;" style="text;html=1;align=center;verticalAlign=middle;resizable=0;points=[];autosize=1;strokeColor=none;fillColor=none;fontFamily=Helvetica;fontSize=12;fontColor=default;" parent="1" vertex="1">
          <mxGeometry x="89" y="110" width="60" height="30" as="geometry" />
        </mxCell>
        <mxCell id="_I0Dw_Q9TnmeKwUnhO5s-17" value="" style="group" parent="1" vertex="1" connectable="0">
          <mxGeometry x="279" y="110" width="150" height="40" as="geometry" />
        </mxCell>
        <mxCell id="_I0Dw_Q9TnmeKwUnhO5s-18" value="" style="rounded=0;whiteSpace=wrap;html=1;" parent="_I0Dw_Q9TnmeKwUnhO5s-17" vertex="1">
          <mxGeometry x="40" width="70" height="26.666666666666664" as="geometry" />
        </mxCell>
        <mxCell id="_I0Dw_Q9TnmeKwUnhO5s-19" value="" style="rounded=0;whiteSpace=wrap;html=1;pointerEvents=0;align=center;verticalAlign=top;fontFamily=Helvetica;fontSize=12;fontColor=default;fillColor=none;gradientColor=none;" parent="_I0Dw_Q9TnmeKwUnhO5s-17" vertex="1">
          <mxGeometry width="40" height="26.666666666666664" as="geometry" />
        </mxCell>
        <mxCell id="_I0Dw_Q9TnmeKwUnhO5s-20" value="" style="rounded=0;whiteSpace=wrap;html=1;pointerEvents=0;align=center;verticalAlign=top;fontFamily=Helvetica;fontSize=12;fontColor=default;fillColor=none;gradientColor=none;" parent="_I0Dw_Q9TnmeKwUnhO5s-17" vertex="1">
          <mxGeometry x="110" width="40" height="26.666666666666664" as="geometry" />
        </mxCell>
        <mxCell id="_I0Dw_Q9TnmeKwUnhO5s-42" value="&lt;b&gt;100&lt;/b&gt;" style="text;html=1;align=center;verticalAlign=middle;resizable=0;points=[];autosize=1;strokeColor=none;fillColor=none;fontFamily=Helvetica;fontSize=12;fontColor=default;" parent="_I0Dw_Q9TnmeKwUnhO5s-17" vertex="1">
          <mxGeometry y="-1.6700000000000017" width="40" height="30" as="geometry" />
        </mxCell>
        <mxCell id="_I0Dw_Q9TnmeKwUnhO5s-43" value="&lt;b&gt;300&lt;/b&gt;" style="text;html=1;align=center;verticalAlign=middle;resizable=0;points=[];autosize=1;strokeColor=none;fillColor=none;fontFamily=Helvetica;fontSize=12;fontColor=default;" parent="_I0Dw_Q9TnmeKwUnhO5s-17" vertex="1">
          <mxGeometry x="110" y="1.7763568394002505e-15" width="40" height="30" as="geometry" />
        </mxCell>
        <mxCell id="_I0Dw_Q9TnmeKwUnhO5s-21" value="" style="group" parent="1" vertex="1" connectable="0">
          <mxGeometry x="469" y="110" width="150" height="40" as="geometry" />
        </mxCell>
        <mxCell id="_I0Dw_Q9TnmeKwUnhO5s-22" value="" style="rounded=0;whiteSpace=wrap;html=1;" parent="_I0Dw_Q9TnmeKwUnhO5s-21" vertex="1">
          <mxGeometry x="40" width="70" height="26.666666666666664" as="geometry" />
        </mxCell>
        <mxCell id="_I0Dw_Q9TnmeKwUnhO5s-23" value="" style="rounded=0;whiteSpace=wrap;html=1;pointerEvents=0;align=center;verticalAlign=top;fontFamily=Helvetica;fontSize=12;fontColor=default;fillColor=none;gradientColor=none;" parent="_I0Dw_Q9TnmeKwUnhO5s-21" vertex="1">
          <mxGeometry width="40" height="26.666666666666664" as="geometry" />
        </mxCell>
        <mxCell id="_I0Dw_Q9TnmeKwUnhO5s-24" value="" style="rounded=0;whiteSpace=wrap;html=1;pointerEvents=0;align=center;verticalAlign=top;fontFamily=Helvetica;fontSize=12;fontColor=default;fillColor=none;gradientColor=none;" parent="_I0Dw_Q9TnmeKwUnhO5s-21" vertex="1">
          <mxGeometry x="110" width="40" height="26.666666666666664" as="geometry" />
        </mxCell>
        <mxCell id="_I0Dw_Q9TnmeKwUnhO5s-44" value="&lt;b&gt;200&lt;/b&gt;" style="text;html=1;align=center;verticalAlign=middle;resizable=0;points=[];autosize=1;strokeColor=none;fillColor=none;fontFamily=Helvetica;fontSize=12;fontColor=default;" parent="_I0Dw_Q9TnmeKwUnhO5s-21" vertex="1">
          <mxGeometry y="-3.3299999999999983" width="40" height="30" as="geometry" />
        </mxCell>
        <mxCell id="_I0Dw_Q9TnmeKwUnhO5s-45" value="&lt;b&gt;400&lt;/b&gt;" style="text;html=1;align=center;verticalAlign=middle;resizable=0;points=[];autosize=1;strokeColor=none;fillColor=none;fontFamily=Helvetica;fontSize=12;fontColor=default;" parent="_I0Dw_Q9TnmeKwUnhO5s-21" vertex="1">
          <mxGeometry x="110" y="-3.3299999999999983" width="40" height="30" as="geometry" />
        </mxCell>
        <mxCell id="_I0Dw_Q9TnmeKwUnhO5s-25" value="" style="group" parent="1" vertex="1" connectable="0">
          <mxGeometry x="649" y="110" width="160" height="40" as="geometry" />
        </mxCell>
        <mxCell id="_I0Dw_Q9TnmeKwUnhO5s-26" value="" style="rounded=0;whiteSpace=wrap;html=1;" parent="_I0Dw_Q9TnmeKwUnhO5s-25" vertex="1">
          <mxGeometry x="40" width="70" height="26.666666666666664" as="geometry" />
        </mxCell>
        <mxCell id="_I0Dw_Q9TnmeKwUnhO5s-27" value="" style="rounded=0;whiteSpace=wrap;html=1;pointerEvents=0;align=center;verticalAlign=top;fontFamily=Helvetica;fontSize=12;fontColor=default;fillColor=none;gradientColor=none;" parent="_I0Dw_Q9TnmeKwUnhO5s-25" vertex="1">
          <mxGeometry width="40" height="26.666666666666664" as="geometry" />
        </mxCell>
        <mxCell id="_I0Dw_Q9TnmeKwUnhO5s-28" value="" style="rounded=0;whiteSpace=wrap;html=1;pointerEvents=0;align=center;verticalAlign=top;fontFamily=Helvetica;fontSize=12;fontColor=default;fillColor=none;gradientColor=none;" parent="_I0Dw_Q9TnmeKwUnhO5s-25" vertex="1">
          <mxGeometry x="110" width="40" height="26.666666666666664" as="geometry" />
        </mxCell>
        <mxCell id="_I0Dw_Q9TnmeKwUnhO5s-29" value="&lt;b&gt;NULL&lt;/b&gt;" style="text;html=1;align=center;verticalAlign=middle;resizable=0;points=[];autosize=1;strokeColor=none;fillColor=none;fontFamily=Helvetica;fontSize=12;fontColor=default;" parent="_I0Dw_Q9TnmeKwUnhO5s-25" vertex="1">
          <mxGeometry x="100" y="-1.670000000000016" width="60" height="30" as="geometry" />
        </mxCell>
        <mxCell id="_I0Dw_Q9TnmeKwUnhO5s-46" value="&lt;b&gt;300&lt;/b&gt;" style="text;html=1;align=center;verticalAlign=middle;resizable=0;points=[];autosize=1;strokeColor=none;fillColor=none;fontFamily=Helvetica;fontSize=12;fontColor=default;" parent="_I0Dw_Q9TnmeKwUnhO5s-25" vertex="1">
          <mxGeometry y="-3.3299999999999983" width="40" height="30" as="geometry" />
        </mxCell>
        <mxCell id="_I0Dw_Q9TnmeKwUnhO5s-30" style="edgeStyle=orthogonalEdgeStyle;rounded=0;orthogonalLoop=1;jettySize=auto;html=1;entryX=0;entryY=0.5;entryDx=0;entryDy=0;fontFamily=Helvetica;fontSize=12;fontColor=default;" parent="1" source="_I0Dw_Q9TnmeKwUnhO5s-5" target="_I0Dw_Q9TnmeKwUnhO5s-19" edge="1">
          <mxGeometry relative="1" as="geometry" />
        </mxCell>
        <mxCell id="_I0Dw_Q9TnmeKwUnhO5s-31" style="edgeStyle=orthogonalEdgeStyle;rounded=0;orthogonalLoop=1;jettySize=auto;html=1;exitX=0;exitY=0.75;exitDx=0;exitDy=0;entryX=1;entryY=0.75;entryDx=0;entryDy=0;fontFamily=Helvetica;fontSize=12;fontColor=default;" parent="1" source="_I0Dw_Q9TnmeKwUnhO5s-19" target="_I0Dw_Q9TnmeKwUnhO5s-5" edge="1">
          <mxGeometry relative="1" as="geometry" />
        </mxCell>
        <mxCell id="_I0Dw_Q9TnmeKwUnhO5s-32" style="edgeStyle=orthogonalEdgeStyle;rounded=0;orthogonalLoop=1;jettySize=auto;html=1;entryX=0;entryY=0.5;entryDx=0;entryDy=0;fontFamily=Helvetica;fontSize=12;fontColor=default;" parent="1" source="_I0Dw_Q9TnmeKwUnhO5s-20" target="_I0Dw_Q9TnmeKwUnhO5s-23" edge="1">
          <mxGeometry relative="1" as="geometry" />
        </mxCell>
        <mxCell id="_I0Dw_Q9TnmeKwUnhO5s-33" style="edgeStyle=orthogonalEdgeStyle;rounded=0;orthogonalLoop=1;jettySize=auto;html=1;exitX=0;exitY=0.75;exitDx=0;exitDy=0;entryX=1;entryY=0.75;entryDx=0;entryDy=0;fontFamily=Helvetica;fontSize=12;fontColor=default;" parent="1" source="_I0Dw_Q9TnmeKwUnhO5s-23" target="_I0Dw_Q9TnmeKwUnhO5s-20" edge="1">
          <mxGeometry relative="1" as="geometry" />
        </mxCell>
        <mxCell id="_I0Dw_Q9TnmeKwUnhO5s-34" style="edgeStyle=orthogonalEdgeStyle;rounded=0;orthogonalLoop=1;jettySize=auto;html=1;exitX=1;exitY=0.25;exitDx=0;exitDy=0;entryX=0;entryY=0.25;entryDx=0;entryDy=0;fontFamily=Helvetica;fontSize=12;fontColor=default;" parent="1" source="_I0Dw_Q9TnmeKwUnhO5s-24" target="_I0Dw_Q9TnmeKwUnhO5s-27" edge="1">
          <mxGeometry relative="1" as="geometry" />
        </mxCell>
        <mxCell id="_I0Dw_Q9TnmeKwUnhO5s-35" style="edgeStyle=orthogonalEdgeStyle;rounded=0;orthogonalLoop=1;jettySize=auto;html=1;exitX=0;exitY=0.75;exitDx=0;exitDy=0;entryX=1;entryY=0.75;entryDx=0;entryDy=0;fontFamily=Helvetica;fontSize=12;fontColor=default;" parent="1" source="_I0Dw_Q9TnmeKwUnhO5s-27" target="_I0Dw_Q9TnmeKwUnhO5s-24" edge="1">
          <mxGeometry relative="1" as="geometry" />
        </mxCell>
        <mxCell id="_I0Dw_Q9TnmeKwUnhO5s-36" value="&lt;b&gt;100&lt;/b&gt;" style="text;html=1;align=center;verticalAlign=middle;resizable=0;points=[];autosize=1;strokeColor=none;fillColor=none;fontFamily=Helvetica;fontSize=12;fontColor=#FF0000;" parent="1" vertex="1">
          <mxGeometry x="89" y="138" width="40" height="30" as="geometry" />
        </mxCell>
        <mxCell id="_I0Dw_Q9TnmeKwUnhO5s-37" value="&lt;b&gt;200&lt;/b&gt;" style="text;html=1;align=center;verticalAlign=middle;resizable=0;points=[];autosize=1;strokeColor=none;fillColor=none;fontFamily=Helvetica;fontSize=12;fontColor=#FF0000;" parent="1" vertex="1">
          <mxGeometry x="259" y="138" width="40" height="30" as="geometry" />
        </mxCell>
        <mxCell id="_I0Dw_Q9TnmeKwUnhO5s-38" value="&lt;b&gt;300&lt;/b&gt;" style="text;html=1;align=center;verticalAlign=middle;resizable=0;points=[];autosize=1;strokeColor=none;fillColor=none;fontFamily=Helvetica;fontSize=12;fontColor=#FF0000;" parent="1" vertex="1">
          <mxGeometry x="449" y="140" width="40" height="30" as="geometry" />
        </mxCell>
        <mxCell id="_I0Dw_Q9TnmeKwUnhO5s-39" value="&lt;b&gt;400&lt;/b&gt;" style="text;html=1;align=center;verticalAlign=middle;resizable=0;points=[];autosize=1;strokeColor=none;fillColor=none;fontFamily=Helvetica;fontSize=12;fontColor=#FF0000;" parent="1" vertex="1">
          <mxGeometry x="639" y="138" width="40" height="30" as="geometry" />
        </mxCell>
        <mxCell id="_I0Dw_Q9TnmeKwUnhO5s-40" value="&lt;b&gt;100&lt;/b&gt;" style="text;html=1;align=center;verticalAlign=middle;resizable=0;points=[];autosize=1;strokeColor=none;fillColor=none;fontFamily=Helvetica;fontSize=12;fontColor=default;" parent="1" vertex="1">
          <mxGeometry x="35" y="55" width="40" height="30" as="geometry" />
        </mxCell>
        <mxCell id="_I0Dw_Q9TnmeKwUnhO5s-47" value="" style="whiteSpace=wrap;html=1;aspect=fixed;pointerEvents=0;align=center;verticalAlign=top;fontFamily=Helvetica;fontSize=12;fontColor=default;fillColor=none;gradientColor=none;" parent="1" vertex="1">
          <mxGeometry x="334" y="440" width="80" height="80" as="geometry" />
        </mxCell>
        <mxCell id="_I0Dw_Q9TnmeKwUnhO5s-48" value="" style="rounded=1;whiteSpace=wrap;html=1;pointerEvents=0;align=center;verticalAlign=top;fontFamily=Helvetica;fontSize=12;fontColor=default;fillColor=none;gradientColor=none;" parent="1" vertex="1">
          <mxGeometry x="99" y="330" width="120" height="60" as="geometry" />
        </mxCell>
        <mxCell id="_I0Dw_Q9TnmeKwUnhO5s-49" style="edgeStyle=orthogonalEdgeStyle;rounded=0;orthogonalLoop=1;jettySize=auto;html=1;entryX=-0.012;entryY=0.555;entryDx=0;entryDy=0;entryPerimeter=0;fontFamily=Helvetica;fontSize=12;fontColor=default;" parent="1" source="_I0Dw_Q9TnmeKwUnhO5s-48" target="_I0Dw_Q9TnmeKwUnhO5s-47" edge="1">
          <mxGeometry relative="1" as="geometry" />
        </mxCell>
        <mxCell id="_I0Dw_Q9TnmeKwUnhO5s-50" value="struct abc;" style="text;html=1;align=center;verticalAlign=middle;resizable=0;points=[];autosize=1;strokeColor=none;fillColor=none;fontFamily=Helvetica;fontSize=12;fontColor=default;" parent="1" vertex="1">
          <mxGeometry x="330" y="458" width="80" height="30" as="geometry" />
        </mxCell>
        <mxCell id="_I0Dw_Q9TnmeKwUnhO5s-51" value="p" style="text;html=1;align=center;verticalAlign=middle;resizable=0;points=[];autosize=1;strokeColor=none;fillColor=none;fontFamily=Helvetica;fontSize=12;fontColor=default;" parent="1" vertex="1">
          <mxGeometry x="165" y="288" width="30" height="30" as="geometry" />
        </mxCell>
        <mxCell id="_I0Dw_Q9TnmeKwUnhO5s-52" value="&lt;b&gt;struct *p = &amp;amp; abc;&lt;/b&gt;" style="text;html=1;align=center;verticalAlign=middle;resizable=0;points=[];autosize=1;strokeColor=none;fillColor=none;fontFamily=Helvetica;fontSize=12;fontColor=default;" parent="1" vertex="1">
          <mxGeometry x="334" y="345" width="120" height="30" as="geometry" />
        </mxCell>
        <mxCell id="_I0Dw_Q9TnmeKwUnhO5s-53" value="&lt;b&gt;struct abc *p;&lt;/b&gt;" style="text;html=1;align=center;verticalAlign=middle;resizable=0;points=[];autosize=1;strokeColor=none;fillColor=none;fontFamily=Helvetica;fontSize=12;fontColor=default;" parent="1" vertex="1">
          <mxGeometry x="269" y="288" width="100" height="30" as="geometry" />
        </mxCell>
      </root>
    </mxGraphModel>
  </diagram>
  <diagram id="FtSKRykm1GM4KBiUVgx0" name="Page-2">
    <mxGraphModel dx="2206" dy="1212" grid="1" gridSize="10" guides="1" tooltips="1" connect="1" arrows="1" fold="1" page="1" pageScale="1" pageWidth="827" pageHeight="1169" math="0" shadow="0">
      <root>
        <mxCell id="0" />
        <mxCell id="1" parent="0" />
        <mxCell id="yv_F4OJrkx-zPt7K0GM8-1" value="" style="rounded=1;whiteSpace=wrap;html=1;" parent="1" vertex="1">
          <mxGeometry x="20" y="290" width="120" height="60" as="geometry" />
        </mxCell>
        <mxCell id="yv_F4OJrkx-zPt7K0GM8-6" value="" style="group;movable=1;resizable=1;rotatable=1;deletable=1;editable=1;locked=0;connectable=1;" parent="1" vertex="1" connectable="0">
          <mxGeometry x="150" y="450" width="240" height="60" as="geometry" />
        </mxCell>
        <mxCell id="yv_F4OJrkx-zPt7K0GM8-3" value="" style="rounded=0;whiteSpace=wrap;html=1;" parent="yv_F4OJrkx-zPt7K0GM8-6" vertex="1">
          <mxGeometry width="90" height="60" as="geometry" />
        </mxCell>
        <mxCell id="yv_F4OJrkx-zPt7K0GM8-5" value="" style="rounded=0;whiteSpace=wrap;html=1;movable=0;resizable=0;rotatable=0;deletable=0;editable=0;locked=1;connectable=0;" parent="yv_F4OJrkx-zPt7K0GM8-6" vertex="1">
          <mxGeometry x="90" width="150" height="60" as="geometry" />
        </mxCell>
        <mxCell id="yv_F4OJrkx-zPt7K0GM8-25" value="&lt;b&gt;&lt;font style=&quot;font-size: 24px;&quot;&gt;10&lt;/font&gt;&lt;/b&gt;" style="text;html=1;align=center;verticalAlign=middle;resizable=1;points=[];autosize=1;strokeColor=none;fillColor=none;fontFamily=Helvetica;fontSize=12;fontColor=default;" parent="yv_F4OJrkx-zPt7K0GM8-6" vertex="1">
          <mxGeometry x="20" y="10" width="50" height="40" as="geometry" />
        </mxCell>
        <mxCell id="yv_F4OJrkx-zPt7K0GM8-48" value="&lt;b&gt;&lt;font color=&quot;#ff0000&quot; style=&quot;font-size: 24px;&quot;&gt;NULL&lt;/font&gt;&lt;/b&gt;" style="text;html=1;align=center;verticalAlign=middle;resizable=1;points=[];autosize=1;strokeColor=none;fillColor=none;fontFamily=Helvetica;fontSize=12;fontColor=default;" parent="yv_F4OJrkx-zPt7K0GM8-6" vertex="1">
          <mxGeometry x="120" y="10" width="90" height="40" as="geometry" />
        </mxCell>
        <mxCell id="yv_F4OJrkx-zPt7K0GM8-120" style="edgeStyle=orthogonalEdgeStyle;rounded=0;orthogonalLoop=1;jettySize=auto;html=1;entryX=1;entryY=0.5;entryDx=0;entryDy=0;fontFamily=Helvetica;fontSize=12;fontColor=default;resizable=1;strokeWidth=3;" parent="1" source="yv_F4OJrkx-zPt7K0GM8-8" target="yv_F4OJrkx-zPt7K0GM8-6" edge="1">
          <mxGeometry relative="1" as="geometry">
            <Array as="points">
              <mxPoint x="660" y="580" />
              <mxPoint x="450" y="580" />
              <mxPoint x="450" y="480" />
            </Array>
          </mxGeometry>
        </mxCell>
        <mxCell id="yv_F4OJrkx-zPt7K0GM8-8" value="" style="group;movable=1;resizable=1;rotatable=1;deletable=1;editable=1;locked=0;connectable=1;" parent="1" vertex="1" connectable="0">
          <mxGeometry x="540" y="450" width="240" height="60" as="geometry" />
        </mxCell>
        <mxCell id="yv_F4OJrkx-zPt7K0GM8-9" value="" style="rounded=0;whiteSpace=wrap;html=1;" parent="yv_F4OJrkx-zPt7K0GM8-8" vertex="1">
          <mxGeometry width="90" height="60" as="geometry" />
        </mxCell>
        <mxCell id="yv_F4OJrkx-zPt7K0GM8-10" value="" style="rounded=0;whiteSpace=wrap;html=1;movable=0;resizable=0;rotatable=0;deletable=0;editable=0;locked=1;connectable=0;" parent="yv_F4OJrkx-zPt7K0GM8-8" vertex="1">
          <mxGeometry x="90" width="150" height="60" as="geometry" />
        </mxCell>
        <mxCell id="yv_F4OJrkx-zPt7K0GM8-26" value="&lt;b&gt;&lt;font style=&quot;font-size: 24px;&quot;&gt;20&lt;/font&gt;&lt;/b&gt;" style="text;html=1;align=center;verticalAlign=middle;resizable=1;points=[];autosize=1;strokeColor=none;fillColor=none;fontFamily=Helvetica;fontSize=12;fontColor=default;" parent="yv_F4OJrkx-zPt7K0GM8-8" vertex="1">
          <mxGeometry x="20" y="10" width="50" height="40" as="geometry" />
        </mxCell>
        <mxCell id="yv_F4OJrkx-zPt7K0GM8-49" value="&lt;b&gt;&lt;font color=&quot;#ff0000&quot; style=&quot;font-size: 24px;&quot;&gt;300&lt;/font&gt;&lt;/b&gt;" style="text;html=1;align=center;verticalAlign=middle;resizable=1;points=[];autosize=1;strokeColor=none;fillColor=none;fontFamily=Helvetica;fontSize=12;fontColor=default;" parent="yv_F4OJrkx-zPt7K0GM8-8" vertex="1">
          <mxGeometry x="135" y="10" width="60" height="40" as="geometry" />
        </mxCell>
        <mxCell id="yv_F4OJrkx-zPt7K0GM8-22" style="edgeStyle=orthogonalEdgeStyle;rounded=0;orthogonalLoop=1;jettySize=auto;html=1;fontFamily=Helvetica;fontSize=12;fontColor=default;resizable=1;entryX=1;entryY=0.5;entryDx=0;entryDy=0;strokeWidth=3;" parent="1" source="yv_F4OJrkx-zPt7K0GM8-12" target="yv_F4OJrkx-zPt7K0GM8-8" edge="1">
          <mxGeometry relative="1" as="geometry">
            <Array as="points">
              <mxPoint x="1070" y="580" />
              <mxPoint x="830" y="580" />
              <mxPoint x="830" y="480" />
            </Array>
          </mxGeometry>
        </mxCell>
        <mxCell id="yv_F4OJrkx-zPt7K0GM8-12" value="" style="group;movable=1;resizable=1;rotatable=1;deletable=1;editable=1;locked=0;connectable=1;" parent="1" vertex="1" connectable="0">
          <mxGeometry x="950" y="450" width="240" height="60" as="geometry" />
        </mxCell>
        <mxCell id="yv_F4OJrkx-zPt7K0GM8-13" value="" style="rounded=0;whiteSpace=wrap;html=1;" parent="yv_F4OJrkx-zPt7K0GM8-12" vertex="1">
          <mxGeometry width="90" height="60" as="geometry" />
        </mxCell>
        <mxCell id="yv_F4OJrkx-zPt7K0GM8-14" value="" style="rounded=0;whiteSpace=wrap;html=1;movable=0;resizable=0;rotatable=0;deletable=0;editable=0;locked=1;connectable=0;" parent="yv_F4OJrkx-zPt7K0GM8-12" vertex="1">
          <mxGeometry x="90" width="150" height="60" as="geometry" />
        </mxCell>
        <mxCell id="yv_F4OJrkx-zPt7K0GM8-27" value="&lt;b&gt;&lt;font style=&quot;font-size: 24px;&quot;&gt;30&lt;/font&gt;&lt;/b&gt;" style="text;html=1;align=center;verticalAlign=middle;resizable=1;points=[];autosize=1;strokeColor=none;fillColor=none;fontFamily=Helvetica;fontSize=12;fontColor=default;" parent="yv_F4OJrkx-zPt7K0GM8-12" vertex="1">
          <mxGeometry x="20" y="10" width="50" height="40" as="geometry" />
        </mxCell>
        <mxCell id="yv_F4OJrkx-zPt7K0GM8-50" value="&lt;b&gt;&lt;font color=&quot;#ff0000&quot; style=&quot;font-size: 24px;&quot;&gt;400&lt;/font&gt;&lt;/b&gt;" style="text;html=1;align=center;verticalAlign=middle;resizable=1;points=[];autosize=1;strokeColor=none;fillColor=none;fontFamily=Helvetica;fontSize=12;fontColor=default;" parent="yv_F4OJrkx-zPt7K0GM8-12" vertex="1">
          <mxGeometry x="135" y="10" width="60" height="40" as="geometry" />
        </mxCell>
        <mxCell id="yv_F4OJrkx-zPt7K0GM8-21" style="edgeStyle=orthogonalEdgeStyle;rounded=0;orthogonalLoop=1;jettySize=auto;html=1;entryX=1;entryY=0.5;entryDx=0;entryDy=0;fontFamily=Helvetica;fontSize=12;fontColor=default;resizable=1;strokeWidth=3;" parent="1" source="yv_F4OJrkx-zPt7K0GM8-15" target="yv_F4OJrkx-zPt7K0GM8-12" edge="1">
          <mxGeometry relative="1" as="geometry">
            <Array as="points">
              <mxPoint x="1480" y="610" />
              <mxPoint x="1260" y="610" />
              <mxPoint x="1260" y="480" />
            </Array>
          </mxGeometry>
        </mxCell>
        <mxCell id="yv_F4OJrkx-zPt7K0GM8-15" value="" style="group;movable=1;resizable=1;rotatable=1;deletable=1;editable=1;locked=0;connectable=1;" parent="1" vertex="1" connectable="0">
          <mxGeometry x="1360" y="450" width="240" height="60" as="geometry" />
        </mxCell>
        <mxCell id="yv_F4OJrkx-zPt7K0GM8-16" value="" style="rounded=0;whiteSpace=wrap;html=1;" parent="yv_F4OJrkx-zPt7K0GM8-15" vertex="1">
          <mxGeometry width="90" height="60" as="geometry" />
        </mxCell>
        <mxCell id="yv_F4OJrkx-zPt7K0GM8-17" value="" style="rounded=0;whiteSpace=wrap;html=1;movable=0;resizable=0;rotatable=0;deletable=0;editable=0;locked=1;connectable=0;" parent="yv_F4OJrkx-zPt7K0GM8-15" vertex="1">
          <mxGeometry x="90" width="150" height="60" as="geometry" />
        </mxCell>
        <mxCell id="yv_F4OJrkx-zPt7K0GM8-28" value="&lt;b&gt;&lt;font style=&quot;font-size: 24px;&quot;&gt;40&lt;/font&gt;&lt;/b&gt;" style="text;html=1;align=center;verticalAlign=middle;resizable=1;points=[];autosize=1;strokeColor=none;fillColor=none;fontFamily=Helvetica;fontSize=12;fontColor=default;" parent="yv_F4OJrkx-zPt7K0GM8-15" vertex="1">
          <mxGeometry x="20" y="10" width="50" height="40" as="geometry" />
        </mxCell>
        <mxCell id="yv_F4OJrkx-zPt7K0GM8-51" value="&lt;b&gt;&lt;font color=&quot;#ff0000&quot; style=&quot;font-size: 24px;&quot;&gt;500&lt;/font&gt;&lt;/b&gt;" style="text;html=1;align=center;verticalAlign=middle;resizable=1;points=[];autosize=1;strokeColor=none;fillColor=none;fontFamily=Helvetica;fontSize=12;fontColor=default;" parent="yv_F4OJrkx-zPt7K0GM8-15" vertex="1">
          <mxGeometry x="135" y="10" width="60" height="40" as="geometry" />
        </mxCell>
        <mxCell id="yv_F4OJrkx-zPt7K0GM8-121" style="edgeStyle=orthogonalEdgeStyle;rounded=0;orthogonalLoop=1;jettySize=auto;html=1;entryX=1;entryY=0.5;entryDx=0;entryDy=0;fontFamily=Helvetica;fontSize=12;fontColor=default;resizable=1;strokeWidth=3;" parent="1" source="yv_F4OJrkx-zPt7K0GM8-18" target="yv_F4OJrkx-zPt7K0GM8-15" edge="1">
          <mxGeometry relative="1" as="geometry">
            <Array as="points">
              <mxPoint x="1860" y="610" />
              <mxPoint x="1670" y="610" />
              <mxPoint x="1670" y="480" />
            </Array>
          </mxGeometry>
        </mxCell>
        <mxCell id="yv_F4OJrkx-zPt7K0GM8-18" value="" style="group;movable=1;resizable=1;rotatable=1;deletable=1;editable=1;locked=0;connectable=1;" parent="1" vertex="1" connectable="0">
          <mxGeometry x="1740" y="450" width="240" height="60" as="geometry" />
        </mxCell>
        <mxCell id="yv_F4OJrkx-zPt7K0GM8-19" value="" style="rounded=0;whiteSpace=wrap;html=1;" parent="yv_F4OJrkx-zPt7K0GM8-18" vertex="1">
          <mxGeometry width="90" height="60" as="geometry" />
        </mxCell>
        <mxCell id="yv_F4OJrkx-zPt7K0GM8-20" value="" style="rounded=0;whiteSpace=wrap;html=1;movable=0;resizable=0;rotatable=0;deletable=0;editable=0;locked=1;connectable=0;" parent="yv_F4OJrkx-zPt7K0GM8-18" vertex="1">
          <mxGeometry x="90" width="150" height="60" as="geometry" />
        </mxCell>
        <mxCell id="yv_F4OJrkx-zPt7K0GM8-29" value="&lt;b&gt;&lt;font style=&quot;font-size: 24px;&quot;&gt;50&lt;/font&gt;&lt;/b&gt;" style="text;html=1;align=center;verticalAlign=middle;resizable=1;points=[];autosize=1;strokeColor=none;fillColor=none;fontFamily=Helvetica;fontSize=12;fontColor=default;" parent="yv_F4OJrkx-zPt7K0GM8-18" vertex="1">
          <mxGeometry x="20" y="10" width="50" height="40" as="geometry" />
        </mxCell>
        <mxCell id="yv_F4OJrkx-zPt7K0GM8-36" value="&lt;span style=&quot;font-size: 24px;&quot;&gt;&lt;b&gt;400&lt;/b&gt;&lt;/span&gt;" style="text;html=1;align=center;verticalAlign=middle;resizable=1;points=[];autosize=1;strokeColor=none;fillColor=none;fontFamily=Helvetica;fontSize=12;fontColor=default;" parent="yv_F4OJrkx-zPt7K0GM8-18" vertex="1">
          <mxGeometry x="115" y="10" width="60" height="40" as="geometry" />
        </mxCell>
        <mxCell id="yv_F4OJrkx-zPt7K0GM8-41" value="&lt;b&gt;&lt;font color=&quot;#ff0000&quot; style=&quot;font-size: 24px;&quot;&gt;500&lt;/font&gt;&lt;/b&gt;" style="text;html=1;align=center;verticalAlign=middle;resizable=1;points=[];autosize=1;strokeColor=none;fillColor=none;fontFamily=Helvetica;fontSize=12;fontColor=default;" parent="1" vertex="1">
          <mxGeometry x="50" y="300" width="60" height="40" as="geometry" />
        </mxCell>
        <mxCell id="yv_F4OJrkx-zPt7K0GM8-42" value="&lt;b&gt;&lt;font color=&quot;#ff0000&quot; style=&quot;font-size: 24px;&quot;&gt;100&lt;/font&gt;&lt;/b&gt;" style="text;html=1;align=center;verticalAlign=middle;resizable=1;points=[];autosize=1;strokeColor=none;fillColor=none;fontFamily=Helvetica;fontSize=12;fontColor=default;" parent="1" vertex="1">
          <mxGeometry x="120" y="510" width="60" height="40" as="geometry" />
        </mxCell>
        <mxCell id="yv_F4OJrkx-zPt7K0GM8-43" value="&lt;b&gt;&lt;font color=&quot;#ff0000&quot; style=&quot;font-size: 24px;&quot;&gt;200&lt;/font&gt;&lt;/b&gt;" style="text;html=1;align=center;verticalAlign=middle;resizable=1;points=[];autosize=1;strokeColor=none;fillColor=none;fontFamily=Helvetica;fontSize=12;fontColor=default;" parent="1" vertex="1">
          <mxGeometry x="510" y="510" width="60" height="40" as="geometry" />
        </mxCell>
        <mxCell id="yv_F4OJrkx-zPt7K0GM8-44" value="&lt;b&gt;&lt;font color=&quot;#ff0000&quot; style=&quot;font-size: 24px;&quot;&gt;300&lt;/font&gt;&lt;/b&gt;" style="text;html=1;align=center;verticalAlign=middle;resizable=1;points=[];autosize=1;strokeColor=none;fillColor=none;fontFamily=Helvetica;fontSize=12;fontColor=default;" parent="1" vertex="1">
          <mxGeometry x="920" y="510" width="60" height="40" as="geometry" />
        </mxCell>
        <mxCell id="yv_F4OJrkx-zPt7K0GM8-46" value="&lt;b&gt;&lt;font color=&quot;#ff0000&quot; style=&quot;font-size: 24px;&quot;&gt;400&lt;/font&gt;&lt;/b&gt;" style="text;html=1;align=center;verticalAlign=middle;resizable=1;points=[];autosize=1;strokeColor=none;fillColor=none;fontFamily=Helvetica;fontSize=12;fontColor=default;" parent="1" vertex="1">
          <mxGeometry x="1330" y="510" width="60" height="40" as="geometry" />
        </mxCell>
        <mxCell id="yv_F4OJrkx-zPt7K0GM8-47" value="&lt;b&gt;&lt;font color=&quot;#ff0000&quot; style=&quot;font-size: 24px;&quot;&gt;500&lt;/font&gt;&lt;/b&gt;" style="text;html=1;align=center;verticalAlign=middle;resizable=1;points=[];autosize=1;strokeColor=none;fillColor=none;fontFamily=Helvetica;fontSize=12;fontColor=default;" parent="1" vertex="1">
          <mxGeometry x="1710" y="510" width="60" height="40" as="geometry" />
        </mxCell>
        <mxCell id="yv_F4OJrkx-zPt7K0GM8-52" value="&lt;b&gt;&lt;font color=&quot;#3333ff&quot; style=&quot;font-size: 24px;&quot;&gt;Start&lt;/font&gt;&lt;/b&gt;" style="text;html=1;align=center;verticalAlign=middle;resizable=1;points=[];autosize=1;strokeColor=none;fillColor=none;fontFamily=Helvetica;fontSize=12;fontColor=default;" parent="1" vertex="1">
          <mxGeometry x="40" y="230" width="80" height="40" as="geometry" />
        </mxCell>
        <mxCell id="yv_F4OJrkx-zPt7K0GM8-53" value="" style="rounded=1;whiteSpace=wrap;html=1;" parent="1" vertex="1">
          <mxGeometry x="920" y="80" width="120" height="60" as="geometry" />
        </mxCell>
        <mxCell id="yv_F4OJrkx-zPt7K0GM8-54" value="&lt;b&gt;&lt;font color=&quot;#ff0000&quot; style=&quot;font-size: 24px;&quot;&gt;NULL&lt;/font&gt;&lt;/b&gt;" style="text;html=1;align=center;verticalAlign=middle;resizable=1;points=[];autosize=1;strokeColor=none;fillColor=none;fontFamily=Helvetica;fontSize=12;fontColor=default;" parent="1" vertex="1">
          <mxGeometry x="935" y="90" width="90" height="40" as="geometry" />
        </mxCell>
        <mxCell id="yv_F4OJrkx-zPt7K0GM8-55" value="&lt;b&gt;&lt;font color=&quot;#3333ff&quot; style=&quot;font-size: 24px;&quot;&gt;ptr&lt;/font&gt;&lt;/b&gt;" style="text;html=1;align=center;verticalAlign=middle;resizable=1;points=[];autosize=1;strokeColor=none;fillColor=none;fontFamily=Helvetica;fontSize=12;fontColor=default;" parent="1" vertex="1">
          <mxGeometry x="950" y="20" width="60" height="40" as="geometry" />
        </mxCell>
        <mxCell id="yv_F4OJrkx-zPt7K0GM8-56" value="" style="rounded=1;whiteSpace=wrap;html=1;" parent="1" vertex="1">
          <mxGeometry x="1440" y="80" width="120" height="60" as="geometry" />
        </mxCell>
        <mxCell id="yv_F4OJrkx-zPt7K0GM8-57" value="&lt;b&gt;&lt;font color=&quot;#ff0000&quot; style=&quot;font-size: 24px;&quot;&gt;NULL&lt;/font&gt;&lt;/b&gt;" style="text;html=1;align=center;verticalAlign=middle;resizable=1;points=[];autosize=1;strokeColor=none;fillColor=none;fontFamily=Helvetica;fontSize=12;fontColor=default;" parent="1" vertex="1">
          <mxGeometry x="1455" y="90" width="90" height="40" as="geometry" />
        </mxCell>
        <mxCell id="yv_F4OJrkx-zPt7K0GM8-58" value="&lt;b&gt;&lt;font color=&quot;#3333ff&quot; style=&quot;font-size: 24px;&quot;&gt;next_ptr&lt;/font&gt;&lt;/b&gt;" style="text;html=1;align=center;verticalAlign=middle;resizable=1;points=[];autosize=1;strokeColor=none;fillColor=none;fontFamily=Helvetica;fontSize=12;fontColor=default;" parent="1" vertex="1">
          <mxGeometry x="1440" y="20" width="120" height="40" as="geometry" />
        </mxCell>
        <mxCell id="yv_F4OJrkx-zPt7K0GM8-107" value="" style="rounded=1;whiteSpace=wrap;html=1;" parent="1" vertex="1">
          <mxGeometry x="430" y="80" width="120" height="60" as="geometry" />
        </mxCell>
        <mxCell id="yv_F4OJrkx-zPt7K0GM8-108" value="&lt;b&gt;&lt;font color=&quot;#ff0000&quot; style=&quot;font-size: 24px;&quot;&gt;500&lt;/font&gt;&lt;/b&gt;" style="text;html=1;align=center;verticalAlign=middle;resizable=1;points=[];autosize=1;strokeColor=none;fillColor=none;fontFamily=Helvetica;fontSize=12;fontColor=default;" parent="1" vertex="1">
          <mxGeometry x="460" y="90" width="60" height="40" as="geometry" />
        </mxCell>
        <mxCell id="yv_F4OJrkx-zPt7K0GM8-109" value="&lt;b&gt;&lt;font color=&quot;#3333ff&quot; style=&quot;font-size: 24px;&quot;&gt;prev_ptr&lt;/font&gt;&lt;/b&gt;" style="text;html=1;align=center;verticalAlign=middle;resizable=1;points=[];autosize=1;strokeColor=none;fillColor=none;fontFamily=Helvetica;fontSize=12;fontColor=default;" parent="1" vertex="1">
          <mxGeometry x="430" y="20" width="120" height="40" as="geometry" />
        </mxCell>
        <mxCell id="yv_F4OJrkx-zPt7K0GM8-111" value="" style="group" parent="1" vertex="1" connectable="0">
          <mxGeometry x="20" y="1470" width="1980" height="430" as="geometry" />
        </mxCell>
        <mxCell id="yv_F4OJrkx-zPt7K0GM8-104" value="" style="rounded=1;whiteSpace=wrap;html=1;pointerEvents=0;align=center;verticalAlign=top;fontFamily=Helvetica;fontSize=12;resizable=1;fillColor=#d5e8d4;strokeColor=#82b366;" parent="yv_F4OJrkx-zPt7K0GM8-111" vertex="1">
          <mxGeometry width="1980" height="430" as="geometry" />
        </mxCell>
        <mxCell id="yv_F4OJrkx-zPt7K0GM8-60" value="" style="rounded=1;whiteSpace=wrap;html=1;" parent="yv_F4OJrkx-zPt7K0GM8-111" vertex="1">
          <mxGeometry x="10" y="80" width="120" height="60" as="geometry" />
        </mxCell>
        <mxCell id="yv_F4OJrkx-zPt7K0GM8-62" value="" style="group;movable=1;resizable=1;rotatable=1;deletable=1;editable=1;locked=0;connectable=1;strokeWidth=3;" parent="yv_F4OJrkx-zPt7K0GM8-111" vertex="1" connectable="0">
          <mxGeometry x="140" y="240" width="240" height="60" as="geometry" />
        </mxCell>
        <mxCell id="yv_F4OJrkx-zPt7K0GM8-63" value="" style="rounded=0;whiteSpace=wrap;html=1;" parent="yv_F4OJrkx-zPt7K0GM8-62" vertex="1">
          <mxGeometry width="90" height="60" as="geometry" />
        </mxCell>
        <mxCell id="yv_F4OJrkx-zPt7K0GM8-64" value="" style="rounded=0;whiteSpace=wrap;html=1;movable=0;resizable=0;rotatable=0;deletable=0;editable=0;locked=1;connectable=0;" parent="yv_F4OJrkx-zPt7K0GM8-62" vertex="1">
          <mxGeometry x="90" width="150" height="60" as="geometry" />
        </mxCell>
        <mxCell id="yv_F4OJrkx-zPt7K0GM8-65" value="&lt;b&gt;&lt;font style=&quot;font-size: 24px;&quot;&gt;10&lt;/font&gt;&lt;/b&gt;" style="text;html=1;align=center;verticalAlign=middle;resizable=1;points=[];autosize=1;strokeColor=none;fillColor=none;fontFamily=Helvetica;fontSize=12;fontColor=default;" parent="yv_F4OJrkx-zPt7K0GM8-62" vertex="1">
          <mxGeometry x="20" y="10" width="50" height="40" as="geometry" />
        </mxCell>
        <mxCell id="yv_F4OJrkx-zPt7K0GM8-66" value="&lt;b&gt;&lt;font color=&quot;#ff0000&quot; style=&quot;font-size: 24px;&quot;&gt;NULL&lt;/font&gt;&lt;/b&gt;" style="text;html=1;align=center;verticalAlign=middle;resizable=1;points=[];autosize=1;strokeColor=none;fillColor=none;fontFamily=Helvetica;fontSize=12;fontColor=default;" parent="yv_F4OJrkx-zPt7K0GM8-62" vertex="1">
          <mxGeometry x="120" y="10" width="90" height="40" as="geometry" />
        </mxCell>
        <mxCell id="yv_F4OJrkx-zPt7K0GM8-103" style="edgeStyle=orthogonalEdgeStyle;rounded=0;orthogonalLoop=1;jettySize=auto;html=1;entryX=1;entryY=0.5;entryDx=0;entryDy=0;fontFamily=Helvetica;fontSize=12;fontColor=default;resizable=1;strokeWidth=3;" parent="yv_F4OJrkx-zPt7K0GM8-111" source="yv_F4OJrkx-zPt7K0GM8-68" target="yv_F4OJrkx-zPt7K0GM8-62" edge="1">
          <mxGeometry relative="1" as="geometry">
            <Array as="points">
              <mxPoint x="650" y="383" />
              <mxPoint x="420" y="383" />
              <mxPoint x="420" y="270" />
            </Array>
          </mxGeometry>
        </mxCell>
        <mxCell id="yv_F4OJrkx-zPt7K0GM8-68" value="" style="group;movable=1;resizable=1;rotatable=1;deletable=1;editable=1;locked=0;connectable=1;" parent="yv_F4OJrkx-zPt7K0GM8-111" vertex="1" connectable="0">
          <mxGeometry x="530" y="240" width="240" height="60" as="geometry" />
        </mxCell>
        <mxCell id="yv_F4OJrkx-zPt7K0GM8-69" value="" style="rounded=0;whiteSpace=wrap;html=1;" parent="yv_F4OJrkx-zPt7K0GM8-68" vertex="1">
          <mxGeometry width="90" height="60" as="geometry" />
        </mxCell>
        <mxCell id="yv_F4OJrkx-zPt7K0GM8-70" value="" style="rounded=0;whiteSpace=wrap;html=1;movable=0;resizable=0;rotatable=0;deletable=0;editable=0;locked=1;connectable=0;" parent="yv_F4OJrkx-zPt7K0GM8-68" vertex="1">
          <mxGeometry x="90" width="150" height="60" as="geometry" />
        </mxCell>
        <mxCell id="yv_F4OJrkx-zPt7K0GM8-71" value="&lt;b&gt;&lt;font style=&quot;font-size: 24px;&quot;&gt;20&lt;/font&gt;&lt;/b&gt;" style="text;html=1;align=center;verticalAlign=middle;resizable=1;points=[];autosize=1;strokeColor=none;fillColor=none;fontFamily=Helvetica;fontSize=12;fontColor=default;" parent="yv_F4OJrkx-zPt7K0GM8-68" vertex="1">
          <mxGeometry x="20" y="10" width="50" height="40" as="geometry" />
        </mxCell>
        <mxCell id="yv_F4OJrkx-zPt7K0GM8-72" value="&lt;b&gt;&lt;font color=&quot;#ff0000&quot; style=&quot;font-size: 24px;&quot;&gt;100&lt;/font&gt;&lt;/b&gt;" style="text;html=1;align=center;verticalAlign=middle;resizable=1;points=[];autosize=1;strokeColor=none;fillColor=none;fontFamily=Helvetica;fontSize=12;fontColor=default;" parent="yv_F4OJrkx-zPt7K0GM8-68" vertex="1">
          <mxGeometry x="135" y="10" width="60" height="40" as="geometry" />
        </mxCell>
        <mxCell id="yv_F4OJrkx-zPt7K0GM8-74" value="" style="group;movable=1;resizable=1;rotatable=1;deletable=1;editable=1;locked=0;connectable=1;" parent="yv_F4OJrkx-zPt7K0GM8-111" vertex="1" connectable="0">
          <mxGeometry x="940" y="240" width="240" height="60" as="geometry" />
        </mxCell>
        <mxCell id="yv_F4OJrkx-zPt7K0GM8-75" value="" style="rounded=0;whiteSpace=wrap;html=1;" parent="yv_F4OJrkx-zPt7K0GM8-74" vertex="1">
          <mxGeometry width="90" height="60" as="geometry" />
        </mxCell>
        <mxCell id="yv_F4OJrkx-zPt7K0GM8-76" value="" style="rounded=0;whiteSpace=wrap;html=1;movable=0;resizable=0;rotatable=0;deletable=0;editable=0;locked=1;connectable=0;" parent="yv_F4OJrkx-zPt7K0GM8-74" vertex="1">
          <mxGeometry x="90" width="150" height="60" as="geometry" />
        </mxCell>
        <mxCell id="yv_F4OJrkx-zPt7K0GM8-77" value="&lt;b&gt;&lt;font style=&quot;font-size: 24px;&quot;&gt;30&lt;/font&gt;&lt;/b&gt;" style="text;html=1;align=center;verticalAlign=middle;resizable=1;points=[];autosize=1;strokeColor=none;fillColor=none;fontFamily=Helvetica;fontSize=12;fontColor=default;" parent="yv_F4OJrkx-zPt7K0GM8-74" vertex="1">
          <mxGeometry x="20" y="10" width="50" height="40" as="geometry" />
        </mxCell>
        <mxCell id="yv_F4OJrkx-zPt7K0GM8-78" value="&lt;b&gt;&lt;font color=&quot;#ff0000&quot; style=&quot;font-size: 24px;&quot;&gt;200&lt;/font&gt;&lt;/b&gt;" style="text;html=1;align=center;verticalAlign=middle;resizable=1;points=[];autosize=1;strokeColor=none;fillColor=none;fontFamily=Helvetica;fontSize=12;fontColor=default;" parent="yv_F4OJrkx-zPt7K0GM8-74" vertex="1">
          <mxGeometry x="135" y="10" width="60" height="40" as="geometry" />
        </mxCell>
        <mxCell id="yv_F4OJrkx-zPt7K0GM8-80" value="" style="group;movable=1;resizable=1;rotatable=1;deletable=1;editable=1;locked=0;connectable=1;" parent="yv_F4OJrkx-zPt7K0GM8-111" vertex="1" connectable="0">
          <mxGeometry x="1350" y="240" width="240" height="60" as="geometry" />
        </mxCell>
        <mxCell id="yv_F4OJrkx-zPt7K0GM8-81" value="" style="rounded=0;whiteSpace=wrap;html=1;" parent="yv_F4OJrkx-zPt7K0GM8-80" vertex="1">
          <mxGeometry width="90" height="60" as="geometry" />
        </mxCell>
        <mxCell id="yv_F4OJrkx-zPt7K0GM8-82" value="" style="rounded=0;whiteSpace=wrap;html=1;movable=0;resizable=0;rotatable=0;deletable=0;editable=0;locked=1;connectable=0;" parent="yv_F4OJrkx-zPt7K0GM8-80" vertex="1">
          <mxGeometry x="90" width="150" height="60" as="geometry" />
        </mxCell>
        <mxCell id="yv_F4OJrkx-zPt7K0GM8-83" value="&lt;b&gt;&lt;font style=&quot;font-size: 24px;&quot;&gt;40&lt;/font&gt;&lt;/b&gt;" style="text;html=1;align=center;verticalAlign=middle;resizable=1;points=[];autosize=1;strokeColor=none;fillColor=none;fontFamily=Helvetica;fontSize=12;fontColor=default;" parent="yv_F4OJrkx-zPt7K0GM8-80" vertex="1">
          <mxGeometry x="20" y="10" width="50" height="40" as="geometry" />
        </mxCell>
        <mxCell id="yv_F4OJrkx-zPt7K0GM8-84" value="&lt;b&gt;&lt;font color=&quot;#ff0000&quot; style=&quot;font-size: 24px;&quot;&gt;300&lt;/font&gt;&lt;/b&gt;" style="text;html=1;align=center;verticalAlign=middle;resizable=1;points=[];autosize=1;strokeColor=none;fillColor=none;fontFamily=Helvetica;fontSize=12;fontColor=default;" parent="yv_F4OJrkx-zPt7K0GM8-80" vertex="1">
          <mxGeometry x="135" y="10" width="60" height="40" as="geometry" />
        </mxCell>
        <mxCell id="yv_F4OJrkx-zPt7K0GM8-100" style="edgeStyle=orthogonalEdgeStyle;rounded=0;orthogonalLoop=1;jettySize=auto;html=1;entryX=1;entryY=0.5;entryDx=0;entryDy=0;fontFamily=Helvetica;fontSize=12;fontColor=default;resizable=1;strokeWidth=3;" parent="yv_F4OJrkx-zPt7K0GM8-111" source="yv_F4OJrkx-zPt7K0GM8-85" target="yv_F4OJrkx-zPt7K0GM8-80" edge="1">
          <mxGeometry relative="1" as="geometry">
            <Array as="points">
              <mxPoint x="1850" y="393" />
              <mxPoint x="1640" y="393" />
              <mxPoint x="1640" y="270" />
            </Array>
          </mxGeometry>
        </mxCell>
        <mxCell id="yv_F4OJrkx-zPt7K0GM8-85" value="" style="group;movable=1;resizable=1;rotatable=1;deletable=1;editable=1;locked=0;connectable=1;" parent="yv_F4OJrkx-zPt7K0GM8-111" vertex="1" connectable="0">
          <mxGeometry x="1730" y="240" width="240" height="60" as="geometry" />
        </mxCell>
        <mxCell id="yv_F4OJrkx-zPt7K0GM8-86" value="" style="rounded=0;whiteSpace=wrap;html=1;" parent="yv_F4OJrkx-zPt7K0GM8-85" vertex="1">
          <mxGeometry width="90" height="60" as="geometry" />
        </mxCell>
        <mxCell id="yv_F4OJrkx-zPt7K0GM8-87" value="" style="rounded=0;whiteSpace=wrap;html=1;movable=0;resizable=0;rotatable=0;deletable=0;editable=0;locked=1;connectable=0;" parent="yv_F4OJrkx-zPt7K0GM8-85" vertex="1">
          <mxGeometry x="90" width="150" height="60" as="geometry" />
        </mxCell>
        <mxCell id="yv_F4OJrkx-zPt7K0GM8-88" value="&lt;b&gt;&lt;font style=&quot;font-size: 24px;&quot;&gt;50&lt;/font&gt;&lt;/b&gt;" style="text;html=1;align=center;verticalAlign=middle;resizable=1;points=[];autosize=1;strokeColor=none;fillColor=none;fontFamily=Helvetica;fontSize=12;fontColor=default;" parent="yv_F4OJrkx-zPt7K0GM8-85" vertex="1">
          <mxGeometry x="20" y="10" width="50" height="40" as="geometry" />
        </mxCell>
        <mxCell id="yv_F4OJrkx-zPt7K0GM8-89" value="&lt;b&gt;&lt;font style=&quot;font-size: 24px;&quot;&gt;400&lt;/font&gt;&lt;/b&gt;" style="text;html=1;align=center;verticalAlign=middle;resizable=1;points=[];autosize=1;strokeColor=none;fillColor=none;fontFamily=Helvetica;fontSize=12;fontColor=default;" parent="yv_F4OJrkx-zPt7K0GM8-85" vertex="1">
          <mxGeometry x="115" y="10" width="60" height="40" as="geometry" />
        </mxCell>
        <mxCell id="yv_F4OJrkx-zPt7K0GM8-90" value="&lt;b&gt;&lt;font color=&quot;#ff0000&quot; style=&quot;font-size: 24px;&quot;&gt;500&lt;/font&gt;&lt;/b&gt;" style="text;html=1;align=center;verticalAlign=middle;resizable=1;points=[];autosize=1;strokeColor=none;fillColor=none;fontFamily=Helvetica;fontSize=12;fontColor=default;" parent="yv_F4OJrkx-zPt7K0GM8-111" vertex="1">
          <mxGeometry x="40" y="90" width="60" height="40" as="geometry" />
        </mxCell>
        <mxCell id="yv_F4OJrkx-zPt7K0GM8-91" value="&lt;b&gt;&lt;font color=&quot;#ff0000&quot; style=&quot;font-size: 24px;&quot;&gt;100&lt;/font&gt;&lt;/b&gt;" style="text;html=1;align=center;verticalAlign=middle;resizable=1;points=[];autosize=1;strokeColor=none;fillColor=none;fontFamily=Helvetica;fontSize=12;fontColor=default;" parent="yv_F4OJrkx-zPt7K0GM8-111" vertex="1">
          <mxGeometry x="110" y="300" width="60" height="40" as="geometry" />
        </mxCell>
        <mxCell id="yv_F4OJrkx-zPt7K0GM8-92" value="&lt;b&gt;&lt;font color=&quot;#ff0000&quot; style=&quot;font-size: 24px;&quot;&gt;200&lt;/font&gt;&lt;/b&gt;" style="text;html=1;align=center;verticalAlign=middle;resizable=1;points=[];autosize=1;strokeColor=none;fillColor=none;fontFamily=Helvetica;fontSize=12;fontColor=default;" parent="yv_F4OJrkx-zPt7K0GM8-111" vertex="1">
          <mxGeometry x="500" y="300" width="60" height="40" as="geometry" />
        </mxCell>
        <mxCell id="yv_F4OJrkx-zPt7K0GM8-93" value="&lt;b&gt;&lt;font color=&quot;#ff0000&quot; style=&quot;font-size: 24px;&quot;&gt;300&lt;/font&gt;&lt;/b&gt;" style="text;html=1;align=center;verticalAlign=middle;resizable=1;points=[];autosize=1;strokeColor=none;fillColor=none;fontFamily=Helvetica;fontSize=12;fontColor=default;" parent="yv_F4OJrkx-zPt7K0GM8-111" vertex="1">
          <mxGeometry x="910" y="300" width="60" height="40" as="geometry" />
        </mxCell>
        <mxCell id="yv_F4OJrkx-zPt7K0GM8-94" value="&lt;b&gt;&lt;font color=&quot;#ff0000&quot; style=&quot;font-size: 24px;&quot;&gt;400&lt;/font&gt;&lt;/b&gt;" style="text;html=1;align=center;verticalAlign=middle;resizable=1;points=[];autosize=1;strokeColor=none;fillColor=none;fontFamily=Helvetica;fontSize=12;fontColor=default;" parent="yv_F4OJrkx-zPt7K0GM8-111" vertex="1">
          <mxGeometry x="1320" y="300" width="60" height="40" as="geometry" />
        </mxCell>
        <mxCell id="yv_F4OJrkx-zPt7K0GM8-95" value="&lt;b&gt;&lt;font color=&quot;#ff0000&quot; style=&quot;font-size: 24px;&quot;&gt;500&lt;/font&gt;&lt;/b&gt;" style="text;html=1;align=center;verticalAlign=middle;resizable=1;points=[];autosize=1;strokeColor=none;fillColor=none;fontFamily=Helvetica;fontSize=12;fontColor=default;" parent="yv_F4OJrkx-zPt7K0GM8-111" vertex="1">
          <mxGeometry x="1700" y="300" width="60" height="40" as="geometry" />
        </mxCell>
        <mxCell id="yv_F4OJrkx-zPt7K0GM8-96" value="&lt;b&gt;&lt;font color=&quot;#3333ff&quot; style=&quot;font-size: 24px;&quot;&gt;Start&lt;/font&gt;&lt;/b&gt;" style="text;html=1;align=center;verticalAlign=middle;resizable=1;points=[];autosize=1;strokeColor=none;fillColor=none;fontFamily=Helvetica;fontSize=12;fontColor=default;" parent="yv_F4OJrkx-zPt7K0GM8-111" vertex="1">
          <mxGeometry x="30" y="20" width="80" height="40" as="geometry" />
        </mxCell>
        <mxCell id="yv_F4OJrkx-zPt7K0GM8-97" style="edgeStyle=orthogonalEdgeStyle;rounded=0;orthogonalLoop=1;jettySize=auto;html=1;entryX=0.183;entryY=0;entryDx=0;entryDy=0;entryPerimeter=0;fontFamily=Helvetica;fontSize=12;fontColor=default;resizable=1;strokeWidth=3;exitX=1;exitY=0.5;exitDx=0;exitDy=0;" parent="yv_F4OJrkx-zPt7K0GM8-111" source="yv_F4OJrkx-zPt7K0GM8-60" target="yv_F4OJrkx-zPt7K0GM8-85" edge="1">
          <mxGeometry relative="1" as="geometry" />
        </mxCell>
        <mxCell id="yv_F4OJrkx-zPt7K0GM8-101" style="edgeStyle=orthogonalEdgeStyle;rounded=0;orthogonalLoop=1;jettySize=auto;html=1;entryX=1;entryY=0.5;entryDx=0;entryDy=0;fontFamily=Helvetica;fontSize=12;fontColor=default;resizable=1;strokeWidth=3;" parent="yv_F4OJrkx-zPt7K0GM8-111" source="yv_F4OJrkx-zPt7K0GM8-84" target="yv_F4OJrkx-zPt7K0GM8-74" edge="1">
          <mxGeometry relative="1" as="geometry">
            <Array as="points">
              <mxPoint x="1515" y="383" />
              <mxPoint x="1230" y="383" />
              <mxPoint x="1230" y="270" />
            </Array>
          </mxGeometry>
        </mxCell>
        <mxCell id="yv_F4OJrkx-zPt7K0GM8-102" style="edgeStyle=orthogonalEdgeStyle;rounded=0;orthogonalLoop=1;jettySize=auto;html=1;entryX=1;entryY=0.5;entryDx=0;entryDy=0;fontFamily=Helvetica;fontSize=12;fontColor=default;resizable=1;strokeWidth=3;" parent="yv_F4OJrkx-zPt7K0GM8-111" source="yv_F4OJrkx-zPt7K0GM8-78" target="yv_F4OJrkx-zPt7K0GM8-68" edge="1">
          <mxGeometry relative="1" as="geometry">
            <Array as="points">
              <mxPoint x="1105" y="403" />
              <mxPoint x="820" y="403" />
              <mxPoint x="820" y="270" />
            </Array>
          </mxGeometry>
        </mxCell>
        <mxCell id="yv_F4OJrkx-zPt7K0GM8-112" value="&lt;div style=&quot;text-align: left; font-size: 43px;&quot;&gt;&lt;b style=&quot;background-color: initial;&quot;&gt;&lt;font style=&quot;font-size: 43px;&quot;&gt;struct node *prev_ptr, *ptr, *next_ptr;&lt;/font&gt;&lt;/b&gt;&lt;/div&gt;&lt;div style=&quot;text-align: left; font-size: 43px;&quot;&gt;&lt;b&gt;&lt;font style=&quot;font-size: 43px;&quot;&gt;prev=NULL;&lt;/font&gt;&lt;/b&gt;&lt;/div&gt;&lt;div style=&quot;text-align: left; font-size: 43px;&quot;&gt;&lt;b&gt;&lt;font style=&quot;font-size: 43px;&quot;&gt;ptr=start;&lt;/font&gt;&lt;/b&gt;&lt;/div&gt;&lt;div style=&quot;text-align: left; font-size: 43px;&quot;&gt;&lt;b&gt;&lt;font style=&quot;font-size: 43px;&quot;&gt;while(ptr!=NULL){&lt;/font&gt;&lt;/b&gt;&lt;/div&gt;&lt;div style=&quot;text-align: left; font-size: 43px;&quot;&gt;&lt;b&gt;&lt;font style=&quot;font-size: 43px;&quot;&gt;&lt;span style=&quot;white-space: pre;&quot;&gt;&#x9;&lt;/span&gt;next_ptr=ptr-&amp;gt;link;&lt;br&gt;&lt;/font&gt;&lt;/b&gt;&lt;/div&gt;&lt;div style=&quot;text-align: left; font-size: 43px;&quot;&gt;&lt;b&gt;&lt;font style=&quot;font-size: 43px;&quot;&gt;&lt;span style=&quot;white-space: pre;&quot;&gt;&#x9;&lt;/span&gt;ptr-&amp;gt;link=prev_ptr;&lt;br&gt;&lt;/font&gt;&lt;/b&gt;&lt;/div&gt;&lt;div style=&quot;text-align: left; font-size: 43px;&quot;&gt;&lt;b&gt;&lt;font style=&quot;font-size: 43px;&quot;&gt;&lt;span style=&quot;white-space: pre;&quot;&gt;&#x9;&lt;/span&gt;prev_ptr=ptr;&lt;br&gt;&lt;/font&gt;&lt;/b&gt;&lt;/div&gt;&lt;div style=&quot;text-align: left; font-size: 43px;&quot;&gt;&lt;b&gt;&lt;font style=&quot;font-size: 43px;&quot;&gt;&lt;span style=&quot;white-space: pre;&quot;&gt;&#x9;&lt;/span&gt;ptr=next_ptr;&lt;br&gt;&lt;/font&gt;&lt;/b&gt;&lt;/div&gt;&lt;div style=&quot;text-align: left; font-size: 43px;&quot;&gt;&lt;b&gt;&lt;font style=&quot;font-size: 43px;&quot;&gt;}&lt;/font&gt;&lt;/b&gt;&lt;/div&gt;&lt;div style=&quot;text-align: left; font-size: 43px;&quot;&gt;&lt;b&gt;&lt;font style=&quot;font-size: 43px;&quot;&gt;start=prev_ptr;&lt;/font&gt;&lt;/b&gt;&lt;/div&gt;&lt;div style=&quot;text-align: left; font-size: 43px;&quot;&gt;&lt;b style=&quot;&quot;&gt;&lt;font style=&quot;font-size: 43px;&quot;&gt;return start;&lt;/font&gt;&lt;/b&gt;&lt;/div&gt;" style="text;html=1;align=center;verticalAlign=middle;resizable=1;points=[];autosize=1;strokeColor=#d6b656;fillColor=#fff2cc;fontFamily=Helvetica;fontSize=12;" parent="1" vertex="1">
          <mxGeometry x="80" y="610" width="780" height="580" as="geometry" />
        </mxCell>
        <mxCell id="yv_F4OJrkx-zPt7K0GM8-122" style="edgeStyle=orthogonalEdgeStyle;rounded=0;orthogonalLoop=1;jettySize=auto;html=1;entryX=0.593;entryY=-0.026;entryDx=0;entryDy=0;entryPerimeter=0;fontFamily=Helvetica;fontSize=12;fontColor=default;resizable=1;strokeWidth=3;" parent="1" source="yv_F4OJrkx-zPt7K0GM8-1" target="yv_F4OJrkx-zPt7K0GM8-18" edge="1">
          <mxGeometry relative="1" as="geometry" />
        </mxCell>
      </root>
    </mxGraphModel>
  </diagram>
  <diagram id="Am3EMb-01ocSHR8ICB1s" name="Page-3">
    <mxGraphModel dx="755" dy="424" grid="0" gridSize="10" guides="1" tooltips="1" connect="1" arrows="1" fold="1" page="1" pageScale="1" pageWidth="827" pageHeight="1169" math="0" shadow="0">
      <root>
        <mxCell id="0" />
        <mxCell id="1" parent="0" />
        <mxCell id="4hFz7xDlkuJonpyduT0D-1" value="&lt;b&gt;&lt;u&gt;Circular Linked List&lt;/u&gt;&lt;/b&gt;" style="text;html=1;align=center;verticalAlign=middle;resizable=0;points=[];autosize=1;strokeColor=none;fillColor=none;" parent="1" vertex="1">
          <mxGeometry x="300" y="10" width="140" height="30" as="geometry" />
        </mxCell>
        <mxCell id="iHfub1hx5jqkMVR2hhz7-3" value="" style="group" parent="1" vertex="1" connectable="0">
          <mxGeometry x="100" y="100" width="90" height="30" as="geometry" />
        </mxCell>
        <mxCell id="iHfub1hx5jqkMVR2hhz7-1" value="" style="rounded=0;whiteSpace=wrap;html=1;" parent="iHfub1hx5jqkMVR2hhz7-3" vertex="1">
          <mxGeometry width="30" height="30" as="geometry" />
        </mxCell>
        <mxCell id="iHfub1hx5jqkMVR2hhz7-2" value="" style="rounded=0;whiteSpace=wrap;html=1;" parent="iHfub1hx5jqkMVR2hhz7-3" vertex="1">
          <mxGeometry x="30" width="60" height="30" as="geometry" />
        </mxCell>
        <mxCell id="iHfub1hx5jqkMVR2hhz7-32" value="&lt;b&gt;200&lt;/b&gt;" style="text;html=1;align=center;verticalAlign=middle;resizable=0;points=[];autosize=1;strokeColor=none;fillColor=none;fontColor=#3333FF;" parent="iHfub1hx5jqkMVR2hhz7-3" vertex="1">
          <mxGeometry x="40" width="40" height="30" as="geometry" />
        </mxCell>
        <mxCell id="iHfub1hx5jqkMVR2hhz7-4" value="" style="group" parent="1" vertex="1" connectable="0">
          <mxGeometry x="240" y="100" width="90" height="30" as="geometry" />
        </mxCell>
        <mxCell id="iHfub1hx5jqkMVR2hhz7-5" value="" style="rounded=0;whiteSpace=wrap;html=1;" parent="iHfub1hx5jqkMVR2hhz7-4" vertex="1">
          <mxGeometry width="30" height="30" as="geometry" />
        </mxCell>
        <mxCell id="iHfub1hx5jqkMVR2hhz7-6" value="" style="rounded=0;whiteSpace=wrap;html=1;" parent="iHfub1hx5jqkMVR2hhz7-4" vertex="1">
          <mxGeometry x="30" width="60" height="30" as="geometry" />
        </mxCell>
        <mxCell id="iHfub1hx5jqkMVR2hhz7-31" value="&lt;b&gt;300&lt;/b&gt;" style="text;html=1;align=center;verticalAlign=middle;resizable=0;points=[];autosize=1;strokeColor=none;fillColor=none;fontColor=#3333FF;" parent="iHfub1hx5jqkMVR2hhz7-4" vertex="1">
          <mxGeometry x="40" width="40" height="30" as="geometry" />
        </mxCell>
        <mxCell id="iHfub1hx5jqkMVR2hhz7-7" value="" style="group" parent="1" vertex="1" connectable="0">
          <mxGeometry x="360" y="100" width="90" height="30" as="geometry" />
        </mxCell>
        <mxCell id="iHfub1hx5jqkMVR2hhz7-8" value="" style="rounded=0;whiteSpace=wrap;html=1;" parent="iHfub1hx5jqkMVR2hhz7-7" vertex="1">
          <mxGeometry width="30" height="30" as="geometry" />
        </mxCell>
        <mxCell id="iHfub1hx5jqkMVR2hhz7-9" value="" style="rounded=0;whiteSpace=wrap;html=1;" parent="iHfub1hx5jqkMVR2hhz7-7" vertex="1">
          <mxGeometry x="30" width="60" height="30" as="geometry" />
        </mxCell>
        <mxCell id="iHfub1hx5jqkMVR2hhz7-30" value="&lt;b&gt;400&lt;/b&gt;" style="text;html=1;align=center;verticalAlign=middle;resizable=0;points=[];autosize=1;strokeColor=none;fillColor=none;fontColor=#3333FF;" parent="iHfub1hx5jqkMVR2hhz7-7" vertex="1">
          <mxGeometry x="40" width="40" height="30" as="geometry" />
        </mxCell>
        <mxCell id="iHfub1hx5jqkMVR2hhz7-10" value="" style="group;fontStyle=1;fillColor=#fff2cc;strokeColor=#d6b656;" parent="1" vertex="1" connectable="0">
          <mxGeometry x="480" y="100" width="90" height="30" as="geometry" />
        </mxCell>
        <mxCell id="iHfub1hx5jqkMVR2hhz7-11" value="" style="rounded=0;whiteSpace=wrap;html=1;" parent="iHfub1hx5jqkMVR2hhz7-10" vertex="1">
          <mxGeometry width="30" height="30" as="geometry" />
        </mxCell>
        <mxCell id="iHfub1hx5jqkMVR2hhz7-12" value="" style="rounded=0;whiteSpace=wrap;html=1;" parent="iHfub1hx5jqkMVR2hhz7-10" vertex="1">
          <mxGeometry x="30" width="60" height="30" as="geometry" />
        </mxCell>
        <mxCell id="iHfub1hx5jqkMVR2hhz7-29" value="&lt;b&gt;500&lt;/b&gt;" style="text;html=1;align=center;verticalAlign=middle;resizable=0;points=[];autosize=1;strokeColor=none;fillColor=none;fontColor=#3333FF;" parent="iHfub1hx5jqkMVR2hhz7-10" vertex="1">
          <mxGeometry x="40" width="40" height="30" as="geometry" />
        </mxCell>
        <mxCell id="iHfub1hx5jqkMVR2hhz7-13" value="" style="group" parent="1" vertex="1" connectable="0">
          <mxGeometry x="610" y="100" width="90" height="30" as="geometry" />
        </mxCell>
        <mxCell id="iHfub1hx5jqkMVR2hhz7-14" value="" style="rounded=0;whiteSpace=wrap;html=1;" parent="iHfub1hx5jqkMVR2hhz7-13" vertex="1">
          <mxGeometry width="30" height="30" as="geometry" />
        </mxCell>
        <mxCell id="iHfub1hx5jqkMVR2hhz7-15" value="" style="rounded=0;whiteSpace=wrap;html=1;" parent="iHfub1hx5jqkMVR2hhz7-13" vertex="1">
          <mxGeometry x="30" width="60" height="30" as="geometry" />
        </mxCell>
        <mxCell id="iHfub1hx5jqkMVR2hhz7-22" value="&lt;b&gt;100&lt;/b&gt;" style="text;html=1;align=center;verticalAlign=middle;resizable=0;points=[];autosize=1;strokeColor=none;fillColor=none;fontColor=#3333FF;" parent="iHfub1hx5jqkMVR2hhz7-13" vertex="1">
          <mxGeometry x="40" width="40" height="30" as="geometry" />
        </mxCell>
        <mxCell id="iHfub1hx5jqkMVR2hhz7-34" style="edgeStyle=orthogonalEdgeStyle;rounded=0;orthogonalLoop=1;jettySize=auto;html=1;entryX=0.75;entryY=0;entryDx=0;entryDy=0;" parent="1" source="iHfub1hx5jqkMVR2hhz7-16" target="iHfub1hx5jqkMVR2hhz7-14" edge="1">
          <mxGeometry relative="1" as="geometry" />
        </mxCell>
        <mxCell id="iHfub1hx5jqkMVR2hhz7-16" value="500" style="rounded=0;whiteSpace=wrap;html=1;" parent="1" vertex="1">
          <mxGeometry x="704" y="34" width="40" height="20" as="geometry" />
        </mxCell>
        <mxCell id="iHfub1hx5jqkMVR2hhz7-18" style="edgeStyle=orthogonalEdgeStyle;rounded=0;orthogonalLoop=1;jettySize=auto;html=1;entryX=0;entryY=0.5;entryDx=0;entryDy=0;" parent="1" source="iHfub1hx5jqkMVR2hhz7-2" target="iHfub1hx5jqkMVR2hhz7-5" edge="1">
          <mxGeometry relative="1" as="geometry" />
        </mxCell>
        <mxCell id="iHfub1hx5jqkMVR2hhz7-19" style="edgeStyle=orthogonalEdgeStyle;rounded=0;orthogonalLoop=1;jettySize=auto;html=1;entryX=-0.138;entryY=0.429;entryDx=0;entryDy=0;entryPerimeter=0;" parent="1" source="iHfub1hx5jqkMVR2hhz7-6" target="iHfub1hx5jqkMVR2hhz7-8" edge="1">
          <mxGeometry relative="1" as="geometry" />
        </mxCell>
        <mxCell id="iHfub1hx5jqkMVR2hhz7-20" style="edgeStyle=orthogonalEdgeStyle;rounded=0;orthogonalLoop=1;jettySize=auto;html=1;entryX=0;entryY=0.5;entryDx=0;entryDy=0;" parent="1" source="iHfub1hx5jqkMVR2hhz7-9" target="iHfub1hx5jqkMVR2hhz7-11" edge="1">
          <mxGeometry relative="1" as="geometry" />
        </mxCell>
        <mxCell id="iHfub1hx5jqkMVR2hhz7-21" style="edgeStyle=orthogonalEdgeStyle;rounded=0;orthogonalLoop=1;jettySize=auto;html=1;entryX=0;entryY=0.5;entryDx=0;entryDy=0;" parent="1" source="iHfub1hx5jqkMVR2hhz7-12" target="iHfub1hx5jqkMVR2hhz7-14" edge="1">
          <mxGeometry relative="1" as="geometry" />
        </mxCell>
        <mxCell id="iHfub1hx5jqkMVR2hhz7-23" style="edgeStyle=orthogonalEdgeStyle;rounded=0;orthogonalLoop=1;jettySize=auto;html=1;entryX=0.674;entryY=1.002;entryDx=0;entryDy=0;exitX=0.626;exitY=1.057;exitDx=0;exitDy=0;exitPerimeter=0;entryPerimeter=0;" parent="1" target="iHfub1hx5jqkMVR2hhz7-1" edge="1">
          <mxGeometry relative="1" as="geometry">
            <mxPoint x="677.56" y="130.01000000000002" as="sourcePoint" />
            <mxPoint x="120" y="148.3" as="targetPoint" />
            <Array as="points">
              <mxPoint x="675" y="130" />
              <mxPoint x="675" y="168" />
              <mxPoint x="120" y="168" />
            </Array>
          </mxGeometry>
        </mxCell>
        <mxCell id="iHfub1hx5jqkMVR2hhz7-24" value="&lt;b&gt;100&lt;/b&gt;" style="text;html=1;align=center;verticalAlign=middle;resizable=0;points=[];autosize=1;strokeColor=none;fillColor=none;fontColor=#FF0000;" parent="1" vertex="1">
          <mxGeometry x="76" y="124" width="40" height="30" as="geometry" />
        </mxCell>
        <mxCell id="iHfub1hx5jqkMVR2hhz7-25" value="&lt;b&gt;200&lt;/b&gt;" style="text;html=1;align=center;verticalAlign=middle;resizable=0;points=[];autosize=1;strokeColor=none;fillColor=none;fontColor=#FF0000;" parent="1" vertex="1">
          <mxGeometry x="220" y="124" width="40" height="30" as="geometry" />
        </mxCell>
        <mxCell id="iHfub1hx5jqkMVR2hhz7-26" value="&lt;b&gt;300&lt;/b&gt;" style="text;html=1;align=center;verticalAlign=middle;resizable=0;points=[];autosize=1;strokeColor=none;fillColor=none;fontColor=#FF0000;" parent="1" vertex="1">
          <mxGeometry x="340" y="124" width="40" height="30" as="geometry" />
        </mxCell>
        <mxCell id="iHfub1hx5jqkMVR2hhz7-27" value="&lt;b&gt;400&lt;/b&gt;" style="text;html=1;align=center;verticalAlign=middle;resizable=0;points=[];autosize=1;strokeColor=none;fillColor=none;fontColor=#FF0000;" parent="1" vertex="1">
          <mxGeometry x="460" y="124" width="40" height="30" as="geometry" />
        </mxCell>
        <mxCell id="iHfub1hx5jqkMVR2hhz7-28" value="&lt;b&gt;500&lt;/b&gt;" style="text;html=1;align=center;verticalAlign=middle;resizable=0;points=[];autosize=1;strokeColor=none;fillColor=none;fontColor=#FF0000;" parent="1" vertex="1">
          <mxGeometry x="590" y="124" width="40" height="30" as="geometry" />
        </mxCell>
        <mxCell id="iHfub1hx5jqkMVR2hhz7-33" value="&lt;b&gt;Last&lt;/b&gt;" style="text;html=1;align=center;verticalAlign=middle;resizable=0;points=[];autosize=1;strokeColor=none;fillColor=none;" parent="1" vertex="1">
          <mxGeometry x="665" y="17" width="43" height="26" as="geometry" />
        </mxCell>
        <mxCell id="iHfub1hx5jqkMVR2hhz7-55" style="edgeStyle=orthogonalEdgeStyle;rounded=0;orthogonalLoop=1;jettySize=auto;html=1;entryX=0;entryY=0;entryDx=0;entryDy=0;" parent="1" source="iHfub1hx5jqkMVR2hhz7-48" target="IOgqTHW4lHIcDbaFar8d-19" edge="1">
          <mxGeometry relative="1" as="geometry" />
        </mxCell>
        <mxCell id="iHfub1hx5jqkMVR2hhz7-48" value="&lt;b&gt;300&lt;/b&gt;" style="rounded=0;whiteSpace=wrap;html=1;" parent="1" vertex="1">
          <mxGeometry x="530" y="354" width="40" height="20" as="geometry" />
        </mxCell>
        <mxCell id="iHfub1hx5jqkMVR2hhz7-49" value="&lt;b&gt;Last&lt;/b&gt;" style="text;html=1;align=center;verticalAlign=middle;resizable=0;points=[];autosize=1;strokeColor=none;fillColor=none;" parent="1" vertex="1">
          <mxGeometry x="491" y="337" width="43" height="26" as="geometry" />
        </mxCell>
        <mxCell id="iHfub1hx5jqkMVR2hhz7-50" value="" style="group" parent="1" vertex="1" connectable="0">
          <mxGeometry x="438" y="435" width="90" height="30" as="geometry" />
        </mxCell>
        <mxCell id="iHfub1hx5jqkMVR2hhz7-51" value="" style="rounded=0;whiteSpace=wrap;html=1;" parent="iHfub1hx5jqkMVR2hhz7-50" vertex="1">
          <mxGeometry width="30" height="30" as="geometry" />
        </mxCell>
        <mxCell id="iHfub1hx5jqkMVR2hhz7-52" value="" style="rounded=0;whiteSpace=wrap;html=1;" parent="iHfub1hx5jqkMVR2hhz7-50" vertex="1">
          <mxGeometry x="30" width="60" height="30" as="geometry" />
        </mxCell>
        <mxCell id="iHfub1hx5jqkMVR2hhz7-53" value="&lt;b&gt;300&lt;/b&gt;" style="text;html=1;align=center;verticalAlign=middle;resizable=0;points=[];autosize=1;strokeColor=none;fillColor=none;fontColor=#3333FF;" parent="iHfub1hx5jqkMVR2hhz7-50" vertex="1">
          <mxGeometry x="41" y="2" width="38" height="26" as="geometry" />
        </mxCell>
        <mxCell id="IOgqTHW4lHIcDbaFar8d-9" value="" style="group" vertex="1" connectable="0" parent="1">
          <mxGeometry x="259" y="435" width="90" height="30" as="geometry" />
        </mxCell>
        <mxCell id="IOgqTHW4lHIcDbaFar8d-10" value="" style="rounded=0;whiteSpace=wrap;html=1;" vertex="1" parent="IOgqTHW4lHIcDbaFar8d-9">
          <mxGeometry width="30" height="30" as="geometry" />
        </mxCell>
        <mxCell id="IOgqTHW4lHIcDbaFar8d-11" value="" style="rounded=0;whiteSpace=wrap;html=1;" vertex="1" parent="IOgqTHW4lHIcDbaFar8d-9">
          <mxGeometry x="30" width="60" height="30" as="geometry" />
        </mxCell>
        <mxCell id="IOgqTHW4lHIcDbaFar8d-12" value="&lt;b&gt;100&lt;/b&gt;" style="text;html=1;align=center;verticalAlign=middle;resizable=0;points=[];autosize=1;strokeColor=none;fillColor=none;fontColor=#3333FF;" vertex="1" parent="IOgqTHW4lHIcDbaFar8d-9">
          <mxGeometry x="41" y="2" width="38" height="26" as="geometry" />
        </mxCell>
        <mxCell id="IOgqTHW4lHIcDbaFar8d-15" style="edgeStyle=orthogonalEdgeStyle;rounded=0;orthogonalLoop=1;jettySize=auto;html=1;" edge="1" parent="1" source="IOgqTHW4lHIcDbaFar8d-12" target="iHfub1hx5jqkMVR2hhz7-51">
          <mxGeometry relative="1" as="geometry" />
        </mxCell>
        <mxCell id="IOgqTHW4lHIcDbaFar8d-17" value="" style="group" vertex="1" connectable="0" parent="1">
          <mxGeometry x="561" y="435" width="90" height="30" as="geometry" />
        </mxCell>
        <mxCell id="IOgqTHW4lHIcDbaFar8d-18" value="" style="rounded=0;whiteSpace=wrap;html=1;" vertex="1" parent="IOgqTHW4lHIcDbaFar8d-17">
          <mxGeometry width="30" height="30" as="geometry" />
        </mxCell>
        <mxCell id="IOgqTHW4lHIcDbaFar8d-19" value="" style="rounded=0;whiteSpace=wrap;html=1;" vertex="1" parent="IOgqTHW4lHIcDbaFar8d-17">
          <mxGeometry x="30" width="60" height="30" as="geometry" />
        </mxCell>
        <mxCell id="IOgqTHW4lHIcDbaFar8d-20" value="&lt;b&gt;200&lt;/b&gt;" style="text;html=1;align=center;verticalAlign=middle;resizable=0;points=[];autosize=1;strokeColor=none;fillColor=none;fontColor=#3333FF;" vertex="1" parent="IOgqTHW4lHIcDbaFar8d-17">
          <mxGeometry x="40" width="40" height="30" as="geometry" />
        </mxCell>
        <mxCell id="IOgqTHW4lHIcDbaFar8d-22" value="&lt;b&gt;200&lt;/b&gt;" style="text;html=1;align=center;verticalAlign=middle;resizable=0;points=[];autosize=1;strokeColor=none;fillColor=none;fontColor=#FF0000;" vertex="1" parent="1">
          <mxGeometry x="240" y="459" width="38" height="26" as="geometry" />
        </mxCell>
        <mxCell id="IOgqTHW4lHIcDbaFar8d-23" value="&lt;b&gt;300&lt;/b&gt;" style="text;html=1;align=center;verticalAlign=middle;resizable=0;points=[];autosize=1;strokeColor=none;fillColor=none;fontColor=#FF0000;" vertex="1" parent="1">
          <mxGeometry x="546" y="461" width="38" height="26" as="geometry" />
        </mxCell>
        <mxCell id="iHfub1hx5jqkMVR2hhz7-54" value="&lt;b&gt;100&lt;/b&gt;" style="text;html=1;align=center;verticalAlign=middle;resizable=0;points=[];autosize=1;strokeColor=none;fillColor=none;fontColor=#FF0000;" parent="1" vertex="1">
          <mxGeometry x="421" y="459" width="38" height="26" as="geometry" />
        </mxCell>
        <mxCell id="IOgqTHW4lHIcDbaFar8d-24" style="edgeStyle=orthogonalEdgeStyle;rounded=0;orthogonalLoop=1;jettySize=auto;html=1;entryX=0;entryY=0.5;entryDx=0;entryDy=0;" edge="1" parent="1" source="iHfub1hx5jqkMVR2hhz7-52" target="IOgqTHW4lHIcDbaFar8d-18">
          <mxGeometry relative="1" as="geometry" />
        </mxCell>
        <mxCell id="IOgqTHW4lHIcDbaFar8d-25" style="edgeStyle=orthogonalEdgeStyle;rounded=0;orthogonalLoop=1;jettySize=auto;html=1;entryX=1;entryY=1;entryDx=0;entryDy=0;" edge="1" parent="1" source="IOgqTHW4lHIcDbaFar8d-20" target="IOgqTHW4lHIcDbaFar8d-10">
          <mxGeometry relative="1" as="geometry">
            <Array as="points">
              <mxPoint x="621" y="485" />
              <mxPoint x="289" y="485" />
            </Array>
          </mxGeometry>
        </mxCell>
      </root>
    </mxGraphModel>
  </diagram>
</mxfile>
